<?xml version="1.0" encoding="UTF-8"?>
<svg id="Layer_1" xmlns="http://www.w3.org/2000/svg" viewBox="0 0 1035.24 200.09">
  <defs>
    <style>
      .cls-1 {
        letter-spacing: -.02em;
      }

      .cls-2, .cls-3 {
        fill: #f7f5ff;
      }

      .cls-4 {
        fill: #111827;
      }

      .cls-5 {
        fill: #9564ff;
      }

      .cls-3 {
        font-family: Rubik-Bold, Rubik;
        font-size: 131.58px;
        font-weight: 700;
      }
    </style>
  </defs>
  <g>
    <path class="cls-5" d="M98.68,0c20.55.34,39.06,6.44,55.6,18.99,11.17,8.47,20.15,18.86,28.56,29.82,5.36,6.98,7.98,15.33,9.8,23.84,4.31,20.19,3.1,40.29-3.85,59.53-7.32,20.24-20.49,36.4-39.16,47.65-8.1,4.88-15.35,11.15-24.33,14.59-24.82,9.49-48.22,7.33-70.02-8.38-7.14-5.14-14.45-10.05-21.55-15.25-10.73-7.87-18.09-18.63-23.74-30.35C-1.58,116.48-2.45,91.5,4.04,65.92c2.99-11.79,9.82-21.14,17.9-29.56,8.94-9.31,18.01-18.52,29.79-24.64C66.52,4.04,82.04-.03,98.68,0ZM84.17,95.34c0,15.48,0,30.96,0,46.44,0,1.66-.03,3.34.14,4.99.32,2.94,2.24,4.49,5.02,4.55,2.9.06,4.64-1.65,4.83-4.6.14-2.16.1-4.33.1-6.49.02-30.63.02-61.25.09-91.88.01-4.91-1.76-8.05-5.25-7.97-5.08.12-4.96,3.91-4.96,7.53,0,15.81,0,31.62.01,47.44ZM101.32,87.35c0,13.66,0,27.32,0,40.98,0,3.81.1,7.95,5.26,7.92,4.98-.02,4.83-4.08,4.84-7.66,0-9.66,0-19.32,0-28.99.02-17.83.03-35.65.09-53.48.01-3.64-1.05-6.37-5.22-6.31-3.86.05-5.15,2.01-5.07,6.05.29,13.82.11,27.65.11,41.48ZM77.07,103.84s-.05,0-.07,0c0-8.97.1-17.94-.05-26.91-.05-3.17-1.11-6.17-5.16-5.86-3.68.28-4.9,2.77-4.9,6.24-.02,17.11-.11,34.22-.2,51.32-.02,3.79,1.18,6.86,5.43,6.79,4.01-.07,4.99-3.14,4.98-6.67-.04-8.31-.01-16.61-.01-24.92ZM145.39,87.85s-.04,0-.05,0c0-8.49-.04-16.99.02-25.48.03-3.67-1.71-5.89-5.29-5.8-3.23.09-4.96,2.13-4.94,5.62.09,16.49.08,32.99.14,49.48.01,3.58,1.41,6.53,5.36,6.41,3.54-.11,4.88-2.65,4.81-6.24-.16-7.99-.05-15.99-.05-23.99ZM128.3,95.69s-.06,0-.08,0c0-8.16,0-16.32,0-24.48,0-3.18-1.57-5.09-4.76-5.23-3.21-.14-5.13,1.65-5.14,4.81-.07,15.99-.09,31.98.07,47.97.03,2.99,1.47,5.68,5.09,5.61,3.93-.08,4.85-2.81,4.84-6.18-.02-7.5,0-14.99,0-22.49ZM49.29,108.84s-.04,0-.05,0c0,5.8.01,11.61,0,17.41-.01,3.48.74,6.51,4.97,6.55,4.04.04,5.4-2.69,5.4-6.28.02-11.61-.04-23.22,0-34.82.02-3.75-2.02-5.61-5.42-5.74-3.91-.15-4.92,2.56-4.9,5.95.03,5.64,0,11.28,0,16.92ZM152.4,91.16s.06,0,.08,0c0,3.81-.23,7.65.07,11.44.25,3.01,2.3,4.82,5.4,4.74,2.66-.07,4.5-1.75,4.59-4.37.25-7.62.44-15.26.19-22.88-.1-3.12-2.33-4.94-5.79-4.78-3.54.17-4.4,2.54-4.51,5.39-.13,3.48-.03,6.97-.03,10.46ZM42.17,110.39s.02,0,.03,0c0-2.99.22-6-.06-8.96-.29-3.02-2.33-4.92-5.34-4.76-2.73.15-4.55,1.89-4.57,4.94-.03,5.65-.09,11.3-.1,16.94,0,3.16,1.6,5.19,4.76,5.22,3.04.03,5.01-1.81,5.24-4.91.2-2.81.04-5.64.04-8.47Z"/>
    <path class="cls-4" d="M84.17,95.34c0-15.81,0-31.62,0-47.44,0-3.62-.12-7.41,4.96-7.53,3.49-.08,5.26,3.06,5.25,7.97-.07,30.63-.06,61.25-.09,91.88,0,2.16.03,4.33-.1,6.49-.19,2.96-1.93,4.66-4.83,4.6-2.78-.06-4.7-1.61-5.02-4.55-.18-1.65-.14-3.32-.14-4.99,0-15.48,0-30.96-.01-46.44Z"/>
    <path class="cls-4" d="M101.32,87.35c0-13.83.18-27.66-.11-41.48-.08-4.04,1.21-6,5.07-6.05,4.17-.06,5.23,2.67,5.22,6.31-.06,17.83-.07,35.65-.09,53.48,0,9.66,0,19.32,0,28.99,0,3.58.14,7.64-4.84,7.66-5.16.02-5.26-4.12-5.26-7.92,0-13.66,0-27.32,0-40.98Z"/>
    <path class="cls-4" d="M77.07,103.84c0,8.31-.02,16.61.01,24.92.02,3.53-.97,6.6-4.98,6.67-4.24.07-5.45-3-5.43-6.79.1-17.11.18-34.22.2-51.32,0-3.48,1.22-5.96,4.9-6.24,4.06-.31,5.11,2.69,5.16,5.86.16,8.97.05,17.94.05,26.91.02,0,.05,0,.07,0Z"/>
    <path class="cls-4" d="M145.39,87.85c0,8-.11,16,.05,23.99.07,3.59-1.27,6.13-4.81,6.24-3.94.12-5.34-2.83-5.36-6.41-.06-16.49-.05-32.99-.14-49.48-.02-3.49,1.71-5.53,4.94-5.62,3.57-.09,5.32,2.13,5.29,5.8-.07,8.49-.02,16.99-.02,25.48.02,0,.04,0,.05,0Z"/>
    <path class="cls-4" d="M128.3,95.69c0,7.5-.02,14.99,0,22.49.01,3.37-.9,6.1-4.84,6.18-3.62.07-5.06-2.62-5.09-5.61-.16-15.99-.14-31.98-.07-47.97.01-3.16,1.93-4.96,5.14-4.81,3.19.14,4.76,2.05,4.76,5.23,0,8.16,0,16.32,0,24.48.03,0,.06,0,.08,0Z"/>
    <path class="cls-4" d="M49.29,108.84c0-5.64.02-11.28,0-16.92-.02-3.39.99-6.1,4.9-5.95,3.4.13,5.44,1.99,5.42,5.74-.05,11.61.01,23.22,0,34.82,0,3.59-1.36,6.32-5.4,6.28-4.23-.04-4.98-3.08-4.97-6.55.02-5.8,0-11.61,0-17.41.02,0,.04,0,.05,0Z"/>
    <path class="cls-4" d="M152.4,91.16c0-3.49-.1-6.98.03-10.46.11-2.85.97-5.22,4.51-5.39,3.46-.16,5.69,1.66,5.79,4.78.25,7.62.06,15.26-.19,22.88-.09,2.61-1.92,4.29-4.59,4.37-3.1.08-5.15-1.73-5.4-4.74-.31-3.79-.07-7.62-.07-11.44-.03,0-.06,0-.08,0Z"/>
    <path class="cls-4" d="M42.17,110.39c0,2.82.16,5.66-.04,8.47-.22,3.1-2.19,4.95-5.24,4.91-3.16-.03-4.76-2.07-4.76-5.22,0-5.65.06-11.3.1-16.94.02-3.04,1.83-4.78,4.57-4.94,3-.17,5.05,1.74,5.34,4.76.28,2.96.06,5.97.06,8.96,0,0-.02,0-.03,0Z"/>
  </g>
  <g>
    <path class="cls-2" d="M282.79,148.03c-8.77,0-16.05-1.25-21.84-3.75-5.79-2.5-10.18-5.77-13.16-9.8-2.98-4.03-4.56-8.33-4.74-12.89,0-.7.28-1.34.85-1.91s1.25-.86,2.04-.86h16.58c1.23,0,2.17.22,2.83.66.66.44,1.25,1.01,1.78,1.71.7,1.32,1.69,2.59,2.96,3.82,1.27,1.23,2.96,2.22,5.07,2.96,2.11.75,4.65,1.12,7.63,1.12,5.09,0,8.92-.79,11.51-2.37,2.59-1.58,3.88-3.73,3.88-6.45,0-2.02-.7-3.64-2.11-4.87-1.4-1.23-3.66-2.35-6.78-3.36-3.11-1.01-7.26-2.04-12.43-3.09-6.67-1.4-12.35-3.22-17.04-5.46-4.69-2.24-8.27-5.17-10.72-8.82-2.46-3.64-3.68-8.18-3.68-13.62s1.51-10.13,4.54-14.34c3.03-4.21,7.26-7.5,12.7-9.87,5.44-2.37,11.88-3.55,19.34-3.55,6.05,0,11.38.79,15.99,2.37,4.61,1.58,8.49,3.68,11.64,6.32,3.16,2.63,5.55,5.42,7.17,8.35,1.62,2.94,2.48,5.81,2.57,8.62,0,.7-.24,1.34-.72,1.91-.48.57-1.16.86-2.04.86h-17.37c-.97,0-1.8-.17-2.5-.53-.7-.35-1.32-.92-1.84-1.71-.53-1.93-1.91-3.62-4.14-5.07s-5.15-2.17-8.75-2.17c-3.86,0-6.86.68-9.01,2.04-2.15,1.36-3.22,3.44-3.22,6.25,0,1.76.59,3.29,1.78,4.61s3.16,2.46,5.92,3.42c2.76.97,6.56,1.97,11.38,3.03,7.98,1.49,14.43,3.36,19.34,5.59,4.91,2.24,8.53,5.13,10.86,8.68,2.32,3.55,3.49,8.01,3.49,13.35,0,5.97-1.71,11.1-5.13,15.39-3.42,4.3-8.09,7.61-14.01,9.93s-12.79,3.49-20.59,3.49Z"/>
    <path class="cls-2" d="M369.24,146.71c-5.61,0-10.46-.9-14.54-2.7-4.08-1.8-7.22-4.61-9.41-8.42-2.19-3.82-3.29-8.75-3.29-14.8v-25.26h-10.26c-.97,0-1.78-.31-2.43-.92-.66-.61-.99-1.4-.99-2.37v-10.66c0-.96.33-1.75.99-2.37.66-.61,1.47-.92,2.43-.92h10.26v-21.71c0-.96.33-1.75.99-2.37.66-.61,1.42-.92,2.3-.92h15.26c.96,0,1.75.31,2.37.92.61.62.92,1.4.92,2.37v21.71h16.45c.96,0,1.78.31,2.43.92.66.61.99,1.4.99,2.37v10.66c0,.97-.33,1.76-.99,2.37-.66.61-1.47.92-2.43.92h-16.45v23.42c0,2.98.57,5.35,1.71,7.11,1.14,1.75,3.07,2.63,5.79,2.63h10.13c.96,0,1.75.31,2.37.92.61.62.92,1.4.92,2.37v11.45c0,.88-.31,1.64-.92,2.3-.61.66-1.4.99-2.37.99h-12.24Z"/>
    <path class="cls-2" d="M398.84,68.42c-.97,0-1.76-.31-2.37-.92-.61-.61-.92-1.4-.92-2.37v-11.84c0-.88.31-1.64.92-2.3.61-.66,1.4-.99,2.37-.99h15.79c.88,0,1.65.33,2.3.99.66.66.99,1.43.99,2.3v11.84c0,.97-.33,1.76-.99,2.37-.66.61-1.43.92-2.3.92h-15.79ZM398.97,146.71c-.97,0-1.76-.33-2.37-.99-.61-.66-.92-1.42-.92-2.3v-61.84c0-.96.31-1.75.92-2.37.61-.61,1.4-.92,2.37-.92h15.53c.96,0,1.75.31,2.37.92.61.61.92,1.4.92,2.37v61.84c0,.88-.31,1.64-.92,2.3-.61.66-1.4.99-2.37.99h-15.53Z"/>
    <path class="cls-2" d="M464.76,148.03c-6.49,0-12.24-1.18-17.24-3.55-5-2.37-8.97-5.81-11.91-10.33-2.94-4.52-4.54-9.93-4.8-16.25-.09-1.4-.13-3.18-.13-5.33s.04-3.92.13-5.33c.26-6.4,1.84-11.86,4.74-16.38,2.89-4.52,6.86-7.96,11.91-10.33,5.04-2.37,10.81-3.55,17.3-3.55,6.05,0,11.25.86,15.59,2.57,4.34,1.71,7.85,3.84,10.53,6.38,2.67,2.55,4.69,5.15,6.05,7.83,1.36,2.68,2.08,5.02,2.17,7.04.09.88-.22,1.65-.92,2.3-.7.66-1.49.99-2.37.99h-16.71c-.97,0-1.71-.22-2.24-.66-.53-.44-1.01-1.1-1.45-1.97-1.05-2.72-2.39-4.65-4.01-5.79-1.62-1.14-3.71-1.71-6.25-1.71-3.51,0-6.21,1.14-8.09,3.42-1.89,2.28-2.92,5.79-3.09,10.53-.09,3.51-.09,6.62,0,9.34.26,4.83,1.32,8.33,3.16,10.53,1.84,2.19,4.52,3.29,8.03,3.29,2.72,0,4.87-.59,6.45-1.78,1.58-1.18,2.85-3.09,3.82-5.72.44-.88.92-1.53,1.45-1.97.53-.44,1.27-.66,2.24-.66h16.71c.88,0,1.67.31,2.37.92.7.62,1.01,1.4.92,2.37-.09,1.4-.53,3.12-1.32,5.13-.79,2.02-2.02,4.12-3.68,6.32-1.67,2.19-3.84,4.21-6.51,6.05-2.68,1.84-5.9,3.36-9.67,4.54-3.77,1.18-8.16,1.78-13.16,1.78Z"/>
    <path class="cls-2" d="M514.23,146.71c-.97,0-1.76-.33-2.37-.99-.61-.66-.92-1.42-.92-2.3V56.58c0-.96.31-1.75.92-2.37.61-.61,1.4-.92,2.37-.92h15.26c.88,0,1.64.31,2.3.92.66.62.99,1.4.99,2.37v44.08l18.29-20.13c.53-.61,1.1-1.14,1.71-1.58.61-.44,1.49-.66,2.63-.66h17.63c.79,0,1.47.29,2.04.86.57.57.86,1.25.86,2.04,0,.35-.07.75-.2,1.18-.13.44-.42.79-.86,1.05l-23.68,25.53,26.97,32.76c.7.7,1.05,1.36,1.05,1.97,0,.88-.29,1.6-.86,2.17s-1.29.86-2.17.86h-18.03c-1.32,0-2.28-.24-2.89-.72-.61-.48-1.18-.99-1.71-1.51l-20.79-25v23.95c0,.88-.33,1.64-.99,2.3-.66.66-1.43.99-2.3.99h-15.26Z"/>
    <path class="cls-2" d="M616.47,148.03c-10.35,0-18.6-2.81-24.74-8.42-6.14-5.61-9.34-13.95-9.6-25v-4.61c.26-6.93,1.82-12.87,4.67-17.83,2.85-4.95,6.8-8.73,11.84-11.32,5.04-2.59,10.94-3.88,17.7-3.88,7.72,0,14.1,1.54,19.14,4.61,5.04,3.07,8.84,7.24,11.38,12.5,2.54,5.26,3.82,11.27,3.82,18.03v3.16c0,.97-.31,1.76-.92,2.37-.61.61-1.4.92-2.37.92h-42.1v.92c.09,2.54.55,4.87,1.38,6.97.83,2.11,2.06,3.77,3.68,5,1.62,1.23,3.62,1.84,5.99,1.84,1.75,0,3.22-.28,4.41-.86,1.18-.57,2.17-1.23,2.96-1.97.79-.74,1.4-1.38,1.84-1.91.79-.96,1.42-1.56,1.91-1.78.48-.22,1.25-.33,2.3-.33h16.32c.88,0,1.6.26,2.17.79.57.53.81,1.23.72,2.11-.09,1.49-.83,3.29-2.24,5.39-1.4,2.11-3.44,4.19-6.12,6.25-2.68,2.06-6.03,3.75-10.07,5.07-4.04,1.32-8.73,1.97-14.08,1.97ZM605.28,105.53h22.24v-.26c0-2.89-.42-5.37-1.25-7.43-.83-2.06-2.1-3.66-3.82-4.8-1.71-1.14-3.75-1.71-6.12-1.71s-4.26.57-5.92,1.71c-1.67,1.14-2.94,2.74-3.82,4.8-.88,2.06-1.32,4.54-1.32,7.43v.26Z"/>
    <path class="cls-2" d="M666.33,146.71c-.97,0-1.76-.33-2.37-.99-.61-.66-.92-1.42-.92-2.3v-61.84c0-.88.31-1.64.92-2.3.61-.66,1.4-.99,2.37-.99h15.13c.96,0,1.78.33,2.43.99.66.66.99,1.43.99,2.3v5.26c2.28-2.72,5.07-4.82,8.35-6.32,3.29-1.49,6.99-2.24,11.12-2.24h5.79c.96,0,1.75.31,2.37.92.61.61.92,1.4.92,2.37v13.55c0,.88-.31,1.64-.92,2.3-.62.66-1.4.99-2.37.99h-12.76c-3.6,0-6.38.99-8.35,2.96s-2.96,4.76-2.96,8.35v33.68c0,.88-.33,1.64-.99,2.3-.66.66-1.47.99-2.43.99h-16.32Z"/>
    <path class="cls-2" d="M764.62,148.03c-4.83,0-8.9-.83-12.24-2.5-3.33-1.67-6.05-3.77-8.16-6.32v4.21c0,.88-.33,1.64-.99,2.3s-1.43.99-2.3.99h-14.87c-.97,0-1.76-.33-2.37-.99-.62-.66-.92-1.42-.92-2.3V56.58c0-.96.31-1.75.92-2.37s1.4-.92,2.37-.92h16.05c.96,0,1.75.31,2.37.92.61.62.92,1.4.92,2.37v28.16c2.19-2.28,4.87-4.14,8.03-5.59,3.16-1.45,6.88-2.17,11.18-2.17s8.27.72,11.64,2.17c3.38,1.45,6.25,3.51,8.62,6.18,2.37,2.68,4.21,5.92,5.53,9.74,1.32,3.82,2.06,8.05,2.24,12.7.09,1.76.13,3.31.13,4.67s-.04,2.92-.13,4.67c-.18,4.91-.92,9.28-2.24,13.09-1.32,3.82-3.18,7.06-5.59,9.74-2.41,2.68-5.29,4.69-8.62,6.05-3.33,1.36-7.19,2.04-11.58,2.04ZM757.52,130.4c2.98,0,5.31-.61,6.97-1.84,1.67-1.23,2.87-2.9,3.62-5,.74-2.11,1.2-4.43,1.38-6.97.17-2.72.17-5.44,0-8.16-.18-2.54-.64-4.87-1.38-6.97-.75-2.11-1.95-3.77-3.62-5-1.67-1.23-3.99-1.84-6.97-1.84-2.72,0-4.96.59-6.71,1.78-1.76,1.18-3.07,2.72-3.95,4.61-.88,1.89-1.36,3.93-1.45,6.12-.09,1.67-.13,3.29-.13,4.87s.04,3.25.13,5c.17,2.37.66,4.56,1.45,6.58.79,2.02,2.06,3.66,3.82,4.93,1.75,1.27,4.03,1.91,6.84,1.91Z"/>
    <path class="cls-2" d="M830.94,148.03c-5,0-9.45-1.14-13.36-3.42-3.9-2.28-6.95-5.63-9.14-10.07-2.19-4.43-3.29-9.85-3.29-16.25v-36.71c0-.96.31-1.75.92-2.37.61-.61,1.4-.92,2.37-.92h16.45c.96,0,1.78.31,2.43.92.66.61.99,1.4.99,2.37v35.92c0,8.6,3.82,12.89,11.45,12.89,3.6,0,6.47-1.12,8.62-3.36,2.15-2.24,3.22-5.42,3.22-9.54v-35.92c0-.96.31-1.75.92-2.37.61-.61,1.4-.92,2.37-.92h16.45c.96,0,1.75.31,2.37.92.61.61.92,1.4.92,2.37v61.84c0,.88-.31,1.64-.92,2.3-.62.66-1.4.99-2.37.99h-15.26c-.88,0-1.64-.33-2.3-.99s-.99-1.42-.99-2.3v-5c-2.28,3.16-5.24,5.55-8.88,7.17-3.64,1.62-7.96,2.43-12.96,2.43Z"/>
    <path class="cls-2" d="M918.3,148.03c-5.7,0-10.55-.64-14.54-1.91-3.99-1.27-7.24-2.83-9.74-4.67-2.5-1.84-4.36-3.75-5.59-5.72-1.23-1.97-1.89-3.71-1.97-5.2-.09-.96.22-1.75.92-2.37.7-.61,1.45-.92,2.24-.92h15c.26,0,.5.05.72.13.22.09.46.26.72.53,1.14.61,2.28,1.38,3.42,2.3,1.14.92,2.46,1.73,3.95,2.43,1.49.7,3.29,1.05,5.4,1.05,2.45,0,4.52-.5,6.18-1.51,1.67-1.01,2.5-2.43,2.5-4.28,0-1.4-.39-2.57-1.18-3.49-.79-.92-2.39-1.82-4.8-2.7-2.41-.88-6.03-1.75-10.86-2.63-4.56-1.05-8.55-2.43-11.97-4.15-3.42-1.71-6.05-3.95-7.89-6.71s-2.76-6.12-2.76-10.07c0-3.51,1.14-6.89,3.42-10.13,2.28-3.24,5.61-5.9,10-7.96,4.38-2.06,9.82-3.09,16.32-3.09,5,0,9.38.59,13.16,1.78,3.77,1.18,6.93,2.7,9.47,4.54,2.54,1.84,4.47,3.73,5.79,5.66,1.32,1.93,2.02,3.68,2.11,5.26.09.88-.18,1.64-.79,2.3-.62.66-1.32.99-2.11.99h-13.68c-.35,0-.7-.07-1.05-.2-.35-.13-.66-.28-.92-.46-1.05-.53-2.11-1.23-3.16-2.1-1.05-.88-2.28-1.67-3.68-2.37-1.4-.7-3.16-1.05-5.26-1.05-2.37,0-4.21.53-5.53,1.58s-1.97,2.41-1.97,4.08c0,1.14.37,2.19,1.12,3.16.74.97,2.28,1.84,4.61,2.63,2.32.79,5.94,1.67,10.86,2.63,6.05.97,10.88,2.52,14.47,4.67,3.6,2.15,6.16,4.65,7.7,7.5,1.53,2.85,2.3,5.86,2.3,9.01,0,4.21-1.27,7.94-3.82,11.18-2.54,3.25-6.25,5.77-11.12,7.57s-10.86,2.7-17.96,2.7Z"/>
    <path class="cls-2" d="M966.2,146.71c-.97,0-1.76-.33-2.37-.99-.62-.66-.92-1.42-.92-2.3V56.58c0-.96.31-1.75.92-2.37s1.4-.92,2.37-.92h16.84c.96,0,1.75.31,2.37.92.61.62.92,1.4.92,2.37v29.34c2.37-2.72,5.28-4.89,8.75-6.51,3.46-1.62,7.48-2.43,12.04-2.43,5.09,0,9.63,1.14,13.62,3.42,3.99,2.28,7.13,5.61,9.41,10,2.28,4.39,3.42,9.83,3.42,16.32v36.71c0,.88-.31,1.64-.92,2.3-.62.66-1.4.99-2.37.99h-16.97c-.88,0-1.64-.33-2.3-.99-.66-.66-.99-1.42-.99-2.3v-35.92c0-4.12-.99-7.3-2.96-9.54-1.97-2.24-4.85-3.36-8.62-3.36s-6.62,1.12-8.82,3.36c-2.19,2.24-3.29,5.42-3.29,9.54v35.92c0,.88-.31,1.64-.92,2.3-.61.66-1.4.99-2.37.99h-16.84Z"/>
  </g>
  <text class="cls-3" transform="translate(273.36 -64.29)"><tspan x="0" y="0">Stic</tspan><tspan class="cls-1" x="263.94" y="0">k</tspan><tspan x="337.89" y="0">erbush</tspan></text>
</svg>