<?xml version="1.0" encoding="UTF-8"?>
<svg id="Layer_1" xmlns="http://www.w3.org/2000/svg" viewBox="0 0 195.15 200.09">
  <defs>
    <style>
      .cls-1 {
        fill: #111827;
      }

      .cls-2 {
        fill: #9564ff;
      }
    </style>
  </defs>
  <path class="cls-2" d="M98.68,0c20.55.34,39.06,6.44,55.6,18.99,11.17,8.47,20.15,18.86,28.56,29.82,5.36,6.98,7.98,15.33,9.8,23.84,4.31,20.19,3.1,40.29-3.85,59.53-7.32,20.24-20.49,36.4-39.16,47.65-8.1,4.88-15.35,11.15-24.33,14.59-24.82,9.49-48.22,7.33-70.02-8.38-7.14-5.14-14.45-10.05-21.55-15.25-10.73-7.87-18.09-18.63-23.74-30.35C-1.58,116.48-2.45,91.5,4.04,65.92c2.99-11.79,9.82-21.14,17.9-29.56,8.94-9.31,18.01-18.52,29.79-24.64C66.52,4.04,82.04-.03,98.68,0ZM84.17,95.34c0,15.48,0,30.96,0,46.44,0,1.66-.03,3.34.14,4.99.32,2.94,2.24,4.49,5.02,4.55,2.9.06,4.64-1.65,4.83-4.6.14-2.16.1-4.33.1-6.49.02-30.63.02-61.25.09-91.88.01-4.91-1.76-8.05-5.25-7.97-5.08.12-4.96,3.91-4.96,7.53,0,15.81,0,31.62.01,47.44ZM101.32,87.35c0,13.66,0,27.32,0,40.98,0,3.81.1,7.95,5.26,7.92,4.98-.02,4.83-4.08,4.84-7.66,0-9.66,0-19.32,0-28.99.02-17.83.03-35.65.09-53.48.01-3.64-1.05-6.37-5.22-6.31-3.86.05-5.15,2.01-5.07,6.05.29,13.82.11,27.65.11,41.48ZM77.07,103.84s-.05,0-.07,0c0-8.97.1-17.94-.05-26.91-.05-3.17-1.11-6.17-5.16-5.86-3.68.28-4.9,2.77-4.9,6.24-.02,17.11-.11,34.22-.2,51.32-.02,3.79,1.18,6.86,5.43,6.79,4.01-.07,4.99-3.14,4.98-6.67-.04-8.31-.01-16.61-.01-24.92ZM145.39,87.85s-.04,0-.05,0c0-8.49-.04-16.99.02-25.48.03-3.67-1.71-5.89-5.29-5.8-3.23.09-4.96,2.13-4.94,5.62.09,16.49.08,32.99.14,49.48.01,3.58,1.41,6.53,5.36,6.41,3.54-.11,4.88-2.65,4.81-6.24-.16-7.99-.05-15.99-.05-23.99ZM128.3,95.69s-.06,0-.08,0c0-8.16,0-16.32,0-24.48,0-3.18-1.57-5.09-4.76-5.23-3.21-.14-5.13,1.65-5.14,4.81-.07,15.99-.09,31.98.07,47.97.03,2.99,1.47,5.68,5.09,5.61,3.93-.08,4.85-2.81,4.84-6.18-.02-7.5,0-14.99,0-22.49ZM49.29,108.84s-.04,0-.05,0c0,5.8.01,11.61,0,17.41-.01,3.48.74,6.51,4.97,6.55,4.04.04,5.4-2.69,5.4-6.28.02-11.61-.04-23.22,0-34.82.02-3.75-2.02-5.61-5.42-5.74-3.91-.15-4.92,2.56-4.9,5.95.03,5.64,0,11.28,0,16.92ZM152.4,91.16s.06,0,.08,0c0,3.81-.23,7.65.07,11.44.25,3.01,2.3,4.82,5.4,4.74,2.66-.07,4.5-1.75,4.59-4.37.25-7.62.44-15.26.19-22.88-.1-3.12-2.33-4.94-5.79-4.78-3.54.17-4.4,2.54-4.51,5.39-.13,3.48-.03,6.97-.03,10.46ZM42.17,110.39s.02,0,.03,0c0-2.99.22-6-.06-8.96-.29-3.02-2.33-4.92-5.34-4.76-2.73.15-4.55,1.89-4.57,4.94-.03,5.65-.09,11.3-.1,16.94,0,3.16,1.6,5.19,4.76,5.22,3.04.03,5.01-1.81,5.24-4.91.2-2.81.04-5.64.04-8.47Z"/>
  <path class="cls-1" d="M84.17,95.34c0-15.81,0-31.62,0-47.44,0-3.62-.12-7.41,4.96-7.53,3.49-.08,5.26,3.06,5.25,7.97-.07,30.63-.06,61.25-.09,91.88,0,2.16.03,4.33-.1,6.49-.19,2.96-1.93,4.66-4.83,4.6-2.78-.06-4.7-1.61-5.02-4.55-.18-1.65-.14-3.32-.14-4.99,0-15.48,0-30.96-.01-46.44Z"/>
  <path class="cls-1" d="M101.32,87.35c0-13.83.18-27.66-.11-41.48-.08-4.04,1.21-6,5.07-6.05,4.17-.06,5.23,2.67,5.22,6.31-.06,17.83-.07,35.65-.09,53.48,0,9.66,0,19.32,0,28.99,0,3.58.14,7.64-4.84,7.66-5.16.02-5.26-4.12-5.26-7.92,0-13.66,0-27.32,0-40.98Z"/>
  <path class="cls-1" d="M77.07,103.84c0,8.31-.02,16.61.01,24.92.02,3.53-.97,6.6-4.98,6.67-4.24.07-5.45-3-5.43-6.79.1-17.11.18-34.22.2-51.32,0-3.48,1.22-5.96,4.9-6.24,4.06-.31,5.11,2.69,5.16,5.86.16,8.97.05,17.94.05,26.91.02,0,.05,0,.07,0Z"/>
  <path class="cls-1" d="M145.39,87.85c0,8-.11,16,.05,23.99.07,3.59-1.27,6.13-4.81,6.24-3.94.12-5.34-2.83-5.36-6.41-.06-16.49-.05-32.99-.14-49.48-.02-3.49,1.71-5.53,4.94-5.62,3.57-.09,5.32,2.13,5.29,5.8-.07,8.49-.02,16.99-.02,25.48.02,0,.04,0,.05,0Z"/>
  <path class="cls-1" d="M128.3,95.69c0,7.5-.02,14.99,0,22.49.01,3.37-.9,6.1-4.84,6.18-3.62.07-5.06-2.62-5.09-5.61-.16-15.99-.14-31.98-.07-47.97.01-3.16,1.93-4.96,5.14-4.81,3.19.14,4.76,2.05,4.76,5.23,0,8.16,0,16.32,0,24.48.03,0,.06,0,.08,0Z"/>
  <path class="cls-1" d="M49.29,108.84c0-5.64.02-11.28,0-16.92-.02-3.39.99-6.1,4.9-5.95,3.4.13,5.44,1.99,5.42,5.74-.05,11.61.01,23.22,0,34.82,0,3.59-1.36,6.32-5.4,6.28-4.23-.04-4.98-3.08-4.97-6.55.02-5.8,0-11.61,0-17.41.02,0,.04,0,.05,0Z"/>
  <path class="cls-1" d="M152.4,91.16c0-3.49-.1-6.98.03-10.46.11-2.85.97-5.22,4.51-5.39,3.46-.16,5.69,1.66,5.79,4.78.25,7.62.06,15.26-.19,22.88-.09,2.61-1.92,4.29-4.59,4.37-3.1.08-5.15-1.73-5.4-4.74-.31-3.79-.07-7.62-.07-11.44-.03,0-.06,0-.08,0Z"/>
  <path class="cls-1" d="M42.17,110.39c0,2.82.16,5.66-.04,8.47-.22,3.1-2.19,4.95-5.24,4.91-3.16-.03-4.76-2.07-4.76-5.22,0-5.65.06-11.3.1-16.94.02-3.04,1.83-4.78,4.57-4.94,3-.17,5.05,1.74,5.34,4.76.28,2.96.06,5.97.06,8.96,0,0-.02,0-.03,0Z"/>
</svg>